# xmcd
#
# Track frame offsets:
#	150
#	20983
#	32995
#	48903
#	57879
#	75079
#	92253
#	108566
#	124727
#	143358
#	163429
#	182558
#	201383
#	220251
#	244629
#	262628
#	285085
#	300852
#	323996
#
# Disc length: 4549 seconds
#
# Revision: 3
# Processed by: cddbd v1.5.2PL0 Copyright (c) Steve Scherf et al.
# Submitted via: EasyCDDAExtractor 11.1.0.1
#
DISCID=f511c313
DTITLE=Various Artist - The Best Of The East Coast Blues And Roots Music Fest
DTITLE=ival - Disc 1
DYEAR=2000
DGENRE=Blues
TTITLE0=RL Burnside - Rollin' And Tumblin'
TTITLE1=Ben Harper - Nobody's Fault But Mine
TTITLE2=Taj Mahal And The Hula Blues Band - Mailbox Blues
TTITLE3=Candye Kane - (Hey Mister!) She Was My Baby Last Night
TTITLE4=Junior Brown - My Wife Thinks You're Dead
TTITLE5=Little Charlie And The Nightcats - Dump That Chump
TTITLE6=Katie Webster - I'm Still Leaving You
TTITLE7=The Paladins - Follow Your Heart
TTITLE8=Robben Ford - Talk To Your Daughter
TTITLE9=Renee Geyer - Difficult Woman
TTITLE10=Robert Cray - Love Gone To Waste
TTITLE11=Lucky Dube - The Way It Is
TTITLE12=Christine Anu - Island Home
TTITLE13=Archie Roach - Took The Children Away
TTITLE14=Kasey Chambers - Cry Like A Baby
TTITLE15=Iris Dement - Our Town
TTITLE16=Paul Kelly - Special Treatment
TTITLE17=Chris Wilson - Hand Becomes Fist
TTITLE18=Kenny Wayne Shepherd Band - Everything Is Broken
EXTD=
EXTT0=
EXTT1=
EXTT2=
EXTT3=
EXTT4=
EXTT5=
EXTT6=
EXTT7=
EXTT8=
EXTT9=
EXTT10=
EXTT11=
EXTT12=
EXTT13=
EXTT14=
EXTT15=
EXTT16=
EXTT17=
EXTT18=
PLAYORDER=
